<svg xmlns="http://www.w3.org/2000/svg" version="1.1" xmlns:xlink="http://www.w3.org/1999/xlink" xmlns:svgjs="http://svgjs.dev/svgjs" width="1500" height="1500" viewBox="0 0 1500 1500"><rect width="1500" height="1500" fill="#000000"></rect><g transform="matrix(0.6666666666666666,0,0,0.6666666666666666,249.57151104489571,301.3635627530364)"><svg viewBox="0 0 275 247" data-background-color="#010202" preserveAspectRatio="xMidYMid meet" height="1347" width="1500" xmlns="http://www.w3.org/2000/svg" xmlns:xlink="http://www.w3.org/1999/xlink"><g id="tight-bounds" transform="matrix(1,0,0,1,0.1178344626536898,-0.09999999999999432)"><svg viewBox="0 0 274.7643310746926 247.2" height="247.2" width="274.7643310746926"><g><svg viewBox="0 0 395.52 355.8414719173329" height="247.2" width="274.7643310746926"><g transform="matrix(1,0,0,1,0,260.6842391520123)"><svg viewBox="0 0 395.52 95.15723276532061" height="95.15723276532061" width="395.52"><g id="textblocktransform"><svg viewBox="0 0 395.52 95.15723276532061" height="95.15723276532061" width="395.52" id="textblock"><g><svg viewBox="0 0 395.52 66.36805437553102" height="66.36805437553102" width="395.52"><g transform="matrix(1,0,0,1,0,0)"><svg width="395.52" viewBox="2.4 -38.8 235.07999999999998 39.5" height="66.36805437553102" data-palette-color="#add0a1"><path d="M2.4-13.05L2.4-13.05Q2.4-15.95 3.3-18.48 4.2-21 5.88-22.85 7.55-24.7 9.95-25.75 12.35-26.8 15.35-26.8L15.35-26.8Q19.05-26.8 22.35-25.45L22.35-25.45 21.05-20.5Q20-20.95 18.68-21.25 17.35-21.55 15.85-21.55L15.85-21.55Q12.3-21.55 10.45-19.33 8.6-17.1 8.6-13.05L8.6-13.05Q8.6-9.15 10.35-6.88 12.1-4.6 16.25-4.6L16.25-4.6Q17.8-4.6 19.3-4.9 20.8-5.2 21.9-5.65L21.9-5.65 22.75-0.65Q21.75-0.15 19.73 0.25 17.7 0.65 15.55 0.65L15.55 0.65Q12.2 0.65 9.73-0.38 7.25-1.4 5.63-3.23 4-5.05 3.2-7.58 2.4-10.1 2.4-13.05ZM36.65-4.25L36.65-4.25Q39.45-4.25 40.9-4.55L40.9-4.55 40.9-11.25Q40.4-11.4 39.45-11.55 38.5-11.7 37.35-11.7L37.35-11.7Q36.35-11.7 35.32-11.55 34.3-11.4 33.47-11 32.65-10.6 32.15-9.88 31.65-9.15 31.65-8.05L31.65-8.05Q31.65-5.9 33-5.08 34.35-4.25 36.65-4.25ZM36.15-26.8L36.15-26.8Q39.15-26.8 41.2-26.05 43.25-25.3 44.47-23.95 45.7-22.6 46.22-20.68 46.75-18.75 46.75-16.45L46.75-16.45 46.75-0.6Q45.35-0.3 42.52 0.13 39.7 0.55 36.15 0.55L36.15 0.55Q33.8 0.55 31.85 0.1 29.9-0.35 28.52-1.35 27.15-2.35 26.37-3.95 25.6-5.55 25.6-7.9L25.6-7.9Q25.6-10.15 26.47-11.7 27.35-13.25 28.85-14.23 30.35-15.2 32.32-15.63 34.3-16.05 36.45-16.05L36.45-16.05Q37.45-16.05 38.55-15.93 39.65-15.8 40.9-15.5L40.9-15.5 40.9-16.5Q40.9-17.55 40.65-18.5 40.4-19.45 39.77-20.18 39.15-20.9 38.12-21.3 37.1-21.7 35.55-21.7L35.55-21.7Q33.45-21.7 31.7-21.4 29.95-21.1 28.85-20.7L28.85-20.7 28.1-25.6Q29.25-26 31.45-26.4 33.65-26.8 36.15-26.8ZM70.09-25.8L69.05-20.7Q68.3-20.95 66.97-21.23 65.65-21.5 63.9-21.5L63.9-21.5Q62.9-21.5 61.77-21.3 60.65-21.1 60.2-20.95L60.2-20.95 60.2 0 54.15 0 54.15-24.9Q55.9-25.55 58.52-26.13 61.15-26.7 64.34-26.7L64.34-26.7Q64.95-26.7 65.75-26.63 66.55-26.55 67.34-26.43 68.15-26.3 68.9-26.13 69.65-25.95 70.09-25.8L70.09-25.8ZM91.64-13.15L91.64-13.15Q91.64-17 90.12-19.25 88.59-21.5 85.29-21.5L85.29-21.5Q83.79-21.5 82.47-21.05 81.14-20.6 80.34-20.05L80.34-20.05 80.34-5Q80.99-4.85 82.02-4.73 83.04-4.6 84.49-4.6L84.49-4.6Q87.84-4.6 89.74-6.88 91.64-9.15 91.64-13.15ZM97.84-13.05L97.84-13.05Q97.84-9.9 96.92-7.38 95.99-4.85 94.27-3.05 92.54-1.25 90.09-0.3 87.64 0.65 84.54 0.65L84.54 0.65Q81.54 0.65 78.82 0.2 76.09-0.25 74.29-0.8L74.29-0.8 74.29-37.8 80.34-38.8 80.34-25.25Q81.39-25.8 82.92-26.25 84.44-26.7 86.29-26.7L86.29-26.7Q89.04-26.7 91.22-25.73 93.39-24.75 94.84-22.95 96.29-21.15 97.07-18.63 97.84-16.1 97.84-13.05ZM127.74-13.1L127.74-13.1Q127.74-10 126.84-7.45 125.94-4.9 124.29-3.1 122.64-1.3 120.32-0.3 117.99 0.7 115.19 0.7L115.19 0.7Q112.39 0.7 110.09-0.3 107.79-1.3 106.14-3.1 104.49-4.9 103.57-7.45 102.64-10 102.64-13.1L102.64-13.1Q102.64-16.2 103.57-18.73 104.49-21.25 106.17-23.05 107.84-24.85 110.14-25.83 112.44-26.8 115.19-26.8L115.19-26.8Q117.94-26.8 120.27-25.83 122.59-24.85 124.24-23.05 125.89-21.25 126.82-18.73 127.74-16.2 127.74-13.1ZM121.54-13.1L121.54-13.1Q121.54-17 119.87-19.28 118.19-21.55 115.19-21.55L115.19-21.55Q112.19-21.55 110.52-19.28 108.84-17 108.84-13.1L108.84-13.1Q108.84-9.15 110.52-6.85 112.19-4.55 115.19-4.55L115.19-4.55Q118.19-4.55 119.87-6.85 121.54-9.15 121.54-13.1ZM133.99 0L133.99-25.3Q135.74-25.8 138.54-26.25 141.34-26.7 144.74-26.7L144.74-26.7Q147.94-26.7 150.09-25.83 152.24-24.95 153.51-23.38 154.79-21.8 155.31-19.58 155.84-17.35 155.84-14.7L155.84-14.7 155.84 0 149.79 0 149.79-13.75Q149.79-15.85 149.51-17.32 149.24-18.8 148.61-19.73 147.99-20.65 146.91-21.08 145.84-21.5 144.29-21.5L144.29-21.5Q143.14-21.5 141.89-21.35 140.64-21.2 140.04-21.1L140.04-21.1 140.04 0 133.99 0ZM160.54-11.5L160.54-17.05 173.99-17.05 173.99-11.5 160.54-11.5ZM189.63-38.8L189.63-38.8Q191.73-38.8 193.33-38.43 194.93-38.05 195.73-37.75L195.73-37.75 194.58-32.75Q193.73-33.15 192.61-33.4 191.48-33.65 190.18-33.65L190.18-33.65Q188.73-33.65 187.73-33.23 186.73-32.8 186.13-32.05 185.53-31.3 185.28-30.23 185.03-29.15 185.03-27.9L185.03-27.9 185.03-26.15 194.53-26.15 194.53-21.1 185.03-21.1 185.03 0 178.98 0 178.98-28Q178.98-33.05 181.63-35.93 184.28-38.8 189.63-38.8ZM208.93-4.5L208.08 0.5Q205.38 0.45 203.61-0.1 201.83-0.65 200.78-1.68 199.73-2.7 199.31-4.23 198.88-5.75 198.88-7.7L198.88-7.7 198.88-37.8 204.93-38.8 204.93-8.85Q204.93-7.75 205.11-7 205.28-6.25 205.73-5.73 206.18-5.2 206.96-4.93 207.73-4.65 208.93-4.5L208.93-4.5ZM237.48-13.1L237.48-13.1Q237.48-10 236.58-7.45 235.68-4.9 234.03-3.1 232.38-1.3 230.05-0.3 227.73 0.7 224.93 0.7L224.93 0.7Q222.13 0.7 219.83-0.3 217.53-1.3 215.88-3.1 214.23-4.9 213.3-7.45 212.38-10 212.38-13.1L212.38-13.1Q212.38-16.2 213.3-18.73 214.23-21.25 215.9-23.05 217.58-24.85 219.88-25.83 222.18-26.8 224.93-26.8L224.93-26.8Q227.68-26.8 230-25.83 232.33-24.85 233.98-23.05 235.63-21.25 236.55-18.73 237.48-16.2 237.48-13.1ZM231.28-13.1L231.28-13.1Q231.28-17 229.6-19.28 227.93-21.55 224.93-21.55L224.93-21.55Q221.93-21.55 220.25-19.28 218.58-17 218.58-13.1L218.58-13.1Q218.58-9.15 220.25-6.85 221.93-4.55 224.93-4.55L224.93-4.55Q227.93-4.55 229.6-6.85 231.28-9.15 231.28-13.1Z" opacity="1" transform="matrix(1,0,0,1,0,0)" fill="#ffffff" class="wordmark-text-0" data-fill-palette-color="primary" id="text-0"></path></svg></g></svg></g><g transform="matrix(1,0,0,1,75.54432,82.03595918028887)"><svg viewBox="0 0 244.43135999999998 13.12127358503174" height="13.12127358503174" width="244.43135999999998"><g transform="matrix(1,0,0,1,0,0)"><svg width="244.43135999999998" viewBox="3.85 -38.8 897.8 48.199999999999996" height="13.12127358503174" data-palette-color="#bfd7b7"><path d="M21.2-13.15L21.2-13.15Q21.2-17 19.68-19.25 18.15-21.5 14.85-21.5L14.85-21.5Q13.35-21.5 12.03-21.05 10.7-20.6 9.9-20.05L9.9-20.05 9.9-5Q10.55-4.85 11.58-4.73 12.6-4.6 14.05-4.6L14.05-4.6Q17.4-4.6 19.3-6.88 21.2-9.15 21.2-13.15ZM27.4-13.05L27.4-13.05Q27.4-9.9 26.48-7.38 25.55-4.85 23.83-3.05 22.1-1.25 19.65-0.3 17.2 0.65 14.1 0.65L14.1 0.65Q11.1 0.65 8.38 0.2 5.65-0.25 3.85-0.8L3.85-0.8 3.85-37.8 9.9-38.8 9.9-25.25Q10.95-25.8 12.48-26.25 14-26.7 15.85-26.7L15.85-26.7Q18.6-26.7 20.78-25.73 22.95-24.75 24.4-22.95 25.85-21.15 26.63-18.63 27.4-16.1 27.4-13.05ZM39.75-26.15L39.75 0 33.7 0 33.7-26.15 39.75-26.15ZM40.4-33.8L40.4-33.8Q40.4-32.1 39.3-31.1 38.2-30.1 36.7-30.1L36.7-30.1Q35.15-30.1 34.05-31.1 32.95-32.1 32.95-33.8L32.95-33.8Q32.95-35.55 34.05-36.55 35.15-37.55 36.7-37.55L36.7-37.55Q38.2-37.55 39.3-36.55 40.4-35.55 40.4-33.8ZM71.09-13.1L71.09-13.1Q71.09-10 70.19-7.45 69.3-4.9 67.64-3.1 66-1.3 63.67-0.3 61.34 0.7 58.55 0.7L58.55 0.7Q55.74 0.7 53.45-0.3 51.14-1.3 49.49-3.1 47.84-4.9 46.92-7.45 45.99-10 45.99-13.1L45.99-13.1Q45.99-16.2 46.92-18.73 47.84-21.25 49.52-23.05 51.2-24.85 53.49-25.83 55.8-26.8 58.55-26.8L58.55-26.8Q61.3-26.8 63.62-25.83 65.94-24.85 67.59-23.05 69.25-21.25 70.17-18.73 71.09-16.2 71.09-13.1ZM64.89-13.1L64.89-13.1Q64.89-17 63.22-19.28 61.55-21.55 58.55-21.55L58.55-21.55Q55.55-21.55 53.87-19.28 52.2-17 52.2-13.1L52.2-13.1Q52.2-9.15 53.87-6.85 55.55-4.55 58.55-4.55L58.55-4.55Q61.55-4.55 63.22-6.85 64.89-9.15 64.89-13.1ZM82.09-13.15L82.09-13.15Q82.09-9.15 83.99-6.88 85.89-4.6 89.24-4.6L89.24-4.6Q90.69-4.6 91.72-4.73 92.74-4.85 93.39-5L93.39-5 93.39-20Q92.59-20.55 91.27-21.03 89.94-21.5 88.44-21.5L88.44-21.5Q85.14-21.5 83.62-19.25 82.09-17 82.09-13.15ZM99.44-38.8L99.44-0.8Q97.64-0.25 94.92 0.2 92.19 0.65 89.19 0.65L89.19 0.65Q86.09 0.65 83.64-0.3 81.19-1.25 79.47-3.03 77.74-4.8 76.82-7.33 75.89-9.85 75.89-13L75.89-13Q75.89-16.1 76.67-18.63 77.44-21.15 78.94-22.95 80.44-24.75 82.59-25.73 84.74-26.7 87.54-26.7L87.54-26.7Q89.44-26.7 90.89-26.25 92.34-25.8 93.39-25.25L93.39-25.25 93.39-37.8 99.44-38.8ZM113.24-26.15L113.24 0 107.19 0 107.19-26.15 113.24-26.15ZM113.89-33.8L113.89-33.8Q113.89-32.1 112.79-31.1 111.69-30.1 110.19-30.1L110.19-30.1Q108.64-30.1 107.54-31.1 106.44-32.1 106.44-33.8L106.44-33.8Q106.44-35.55 107.54-36.55 108.64-37.55 110.19-37.55L110.19-37.55Q111.69-37.55 112.79-36.55 113.89-35.55 113.89-33.8ZM132.84 0L127.64 0Q125.14-5.15 122.51-11.83 119.89-18.5 117.74-26.15L117.74-26.15 124.19-26.15Q124.74-23.95 125.46-21.43 126.19-18.9 127.01-16.38 127.84-13.85 128.71-11.48 129.59-9.1 130.34-7.2L130.34-7.2Q131.09-9.1 131.94-11.48 132.79-13.85 133.61-16.38 134.44-18.9 135.19-21.43 135.94-23.95 136.49-26.15L136.49-26.15 142.74-26.15Q140.59-18.5 137.96-11.83 135.34-5.15 132.84 0L132.84 0ZM145.19-12.95L145.19-12.95Q145.19-16.4 146.21-19 147.24-21.6 148.94-23.33 150.64-25.05 152.84-25.93 155.04-26.8 157.34-26.8L157.34-26.8Q162.74-26.8 165.76-23.45 168.79-20.1 168.79-13.45L168.79-13.45Q168.79-12.95 168.76-12.33 168.74-11.7 168.69-11.2L168.69-11.2 151.44-11.2Q151.69-8.05 153.66-6.33 155.64-4.6 159.39-4.6L159.39-4.6Q161.59-4.6 163.41-5 165.24-5.4 166.29-5.85L166.29-5.85 167.09-0.9Q166.59-0.65 165.71-0.38 164.84-0.1 163.71 0.13 162.59 0.35 161.29 0.5 159.99 0.65 158.64 0.65L158.64 0.65Q155.19 0.65 152.64-0.38 150.09-1.4 148.44-3.23 146.79-5.05 145.99-7.53 145.19-10 145.19-12.95ZM151.49-15.65L162.74-15.65Q162.74-16.9 162.39-18.03 162.04-19.15 161.36-19.98 160.69-20.8 159.71-21.28 158.74-21.75 157.39-21.75L157.39-21.75Q155.99-21.75 154.94-21.23 153.89-20.7 153.16-19.85 152.44-19 152.04-17.9 151.64-16.8 151.49-15.65L151.49-15.65ZM191.13-25.8L190.08-20.7Q189.33-20.95 188.01-21.23 186.68-21.5 184.93-21.5L184.93-21.5Q183.93-21.5 182.81-21.3 181.68-21.1 181.23-20.95L181.23-20.95 181.23 0 175.18 0 175.18-24.9Q176.93-25.55 179.56-26.13 182.18-26.7 185.38-26.7L185.38-26.7Q185.98-26.7 186.78-26.63 187.58-26.55 188.38-26.43 189.18-26.3 189.93-26.13 190.68-25.95 191.13-25.8L191.13-25.8ZM201.88-4.35L201.88-4.35Q204.28-4.35 205.38-4.93 206.48-5.5 206.48-6.9L206.48-6.9Q206.48-8.2 205.31-9.05 204.13-9.9 201.43-10.9L201.43-10.9Q199.78-11.5 198.41-12.18 197.03-12.85 196.03-13.75 195.03-14.65 194.46-15.93 193.88-17.2 193.88-19.05L193.88-19.05Q193.88-22.65 196.53-24.73 199.18-26.8 203.73-26.8L203.73-26.8Q206.03-26.8 208.13-26.38 210.23-25.95 211.28-25.55L211.28-25.55 210.18-20.65Q209.18-21.1 207.63-21.48 206.08-21.85 204.03-21.85L204.03-21.85Q202.18-21.85 201.03-21.23 199.88-20.6 199.88-19.3L199.88-19.3Q199.88-18.65 200.11-18.15 200.33-17.65 200.88-17.23 201.43-16.8 202.33-16.38 203.23-15.95 204.53-15.5L204.53-15.5Q206.68-14.7 208.18-13.93 209.68-13.15 210.66-12.18 211.63-11.2 212.08-9.95 212.53-8.7 212.53-6.95L212.53-6.95Q212.53-3.2 209.76-1.28 206.98 0.65 201.83 0.65L201.83 0.65Q198.38 0.65 196.28 0.08 194.18-0.5 193.33-0.85L193.33-0.85 194.38-5.9Q195.73-5.35 197.61-4.85 199.48-4.35 201.88-4.35ZM224.28-26.15L224.28 0 218.23 0 218.23-26.15 224.28-26.15ZM224.93-33.8L224.93-33.8Q224.93-32.1 223.83-31.1 222.73-30.1 221.23-30.1L221.23-30.1Q219.68-30.1 218.58-31.1 217.48-32.1 217.48-33.8L217.48-33.8Q217.48-35.55 218.58-36.55 219.68-37.55 221.23-37.55L221.23-37.55Q222.73-37.55 223.83-36.55 224.93-35.55 224.93-33.8ZM231.68-10.4L231.68-33.05 237.73-34.05 237.73-26.15 247.03-26.15 247.03-21.1 237.73-21.1 237.73-10.45Q237.73-7.3 238.73-5.95 239.73-4.6 242.13-4.6L242.13-4.6Q243.78-4.6 245.05-4.95 246.33-5.3 247.08-5.6L247.08-5.6 248.08-0.8Q247.03-0.35 245.33 0.13 243.63 0.6 241.33 0.6L241.33 0.6Q238.53 0.6 236.65-0.15 234.78-0.9 233.68-2.33 232.58-3.75 232.13-5.78 231.68-7.8 231.68-10.4L231.68-10.4ZM267.97-26.15L274.22-26.15Q270.17-11.25 264.82 0.85L264.82 0.85Q263.82 3.1 262.77 4.7 261.72 6.3 260.42 7.35 259.12 8.4 257.52 8.88 255.92 9.35 253.82 9.35L253.82 9.35Q252.42 9.35 251.05 9.05 249.67 8.75 248.97 8.4L248.97 8.4 250.07 3.55Q251.87 4.25 253.62 4.25L253.62 4.25Q255.97 4.25 257.3 3.13 258.62 2 259.62-0.35L259.62-0.35Q256.77-5.85 254.15-12.35 251.52-18.85 249.47-26.15L249.47-26.15 255.92-26.15Q256.42-24.05 257.15-21.6 257.87-19.15 258.72-16.63 259.57-14.1 260.52-11.6 261.47-9.1 262.42-6.95L262.42-6.95Q264.02-11.4 265.42-16.43 266.82-21.45 267.97-26.15L267.97-26.15ZM295.22-13.75L295.22-13.75Q295.22-9.9 296.89-8.13 298.57-6.35 301.22-6.35L301.22-6.35Q302.67-6.35 303.94-6.75 305.22-7.15 306.02-7.7L306.02-7.7 306.02-21.25Q305.37-21.4 304.42-21.53 303.47-21.65 302.02-21.65L302.02-21.65Q298.72-21.65 296.97-19.48 295.22-17.3 295.22-13.75ZM312.07-25.3L312.07-2.65Q312.07 3.6 308.89 6.5 305.72 9.4 299.17 9.4L299.17 9.4Q296.77 9.4 294.49 9 292.22 8.6 290.37 7.95L290.37 7.95 291.47 2.8Q293.02 3.45 294.99 3.85 296.97 4.25 299.27 4.25L299.27 4.25Q302.92 4.25 304.47 2.75 306.02 1.25 306.02-1.7L306.02-1.7 306.02-2.7Q305.12-2.25 303.64-1.8 302.17-1.35 300.27-1.35L300.27-1.35Q297.77-1.35 295.69-2.15 293.62-2.95 292.14-4.5 290.67-6.05 289.84-8.38 289.02-10.7 289.02-13.75L289.02-13.75Q289.02-16.6 289.89-19 290.77-21.4 292.44-23.1 294.12-24.8 296.52-25.75 298.92-26.7 301.97-26.7L301.97-26.7Q304.92-26.7 307.57-26.25 310.22-25.8 312.07-25.3L312.07-25.3ZM318.32-12.95L318.32-12.95Q318.32-16.4 319.34-19 320.37-21.6 322.07-23.33 323.77-25.05 325.97-25.93 328.17-26.8 330.47-26.8L330.47-26.8Q335.87-26.8 338.89-23.45 341.92-20.1 341.92-13.45L341.92-13.45Q341.92-12.95 341.89-12.33 341.87-11.7 341.82-11.2L341.82-11.2 324.57-11.2Q324.82-8.05 326.79-6.33 328.77-4.6 332.52-4.6L332.52-4.6Q334.72-4.6 336.54-5 338.37-5.4 339.42-5.85L339.42-5.85 340.22-0.9Q339.72-0.65 338.84-0.38 337.97-0.1 336.84 0.13 335.72 0.35 334.42 0.5 333.12 0.65 331.77 0.65L331.77 0.65Q328.32 0.65 325.77-0.38 323.22-1.4 321.57-3.23 319.92-5.05 319.12-7.53 318.32-10 318.32-12.95ZM324.62-15.65L335.87-15.65Q335.87-16.9 335.52-18.03 335.17-19.15 334.49-19.98 333.82-20.8 332.84-21.28 331.87-21.75 330.52-21.75L330.52-21.75Q329.12-21.75 328.07-21.23 327.02-20.7 326.29-19.85 325.57-19 325.17-17.9 324.77-16.8 324.62-15.65L324.62-15.65ZM371.96-13.1L371.96-13.1Q371.96-10 371.06-7.45 370.16-4.9 368.51-3.1 366.86-1.3 364.54-0.3 362.21 0.7 359.41 0.7L359.41 0.7Q356.61 0.7 354.31-0.3 352.01-1.3 350.36-3.1 348.71-4.9 347.79-7.45 346.86-10 346.86-13.1L346.86-13.1Q346.86-16.2 347.79-18.73 348.71-21.25 350.39-23.05 352.06-24.85 354.36-25.83 356.66-26.8 359.41-26.8L359.41-26.8Q362.16-26.8 364.49-25.83 366.81-24.85 368.46-23.05 370.11-21.25 371.04-18.73 371.96-16.2 371.96-13.1ZM365.76-13.1L365.76-13.1Q365.76-17 364.09-19.28 362.41-21.55 359.41-21.55L359.41-21.55Q356.41-21.55 354.74-19.28 353.06-17 353.06-13.1L353.06-13.1Q353.06-9.15 354.74-6.85 356.41-4.55 359.41-4.55L359.41-4.55Q362.41-4.55 364.09-6.85 365.76-9.15 365.76-13.1ZM375.51-11.5L375.51-17.05 388.96-17.05 388.96-11.5 375.51-11.5ZM400.06-26.15L400.06 0 394.01 0 394.01-26.15 400.06-26.15ZM400.71-33.8L400.71-33.8Q400.71-32.1 399.61-31.1 398.51-30.1 397.01-30.1L397.01-30.1Q395.46-30.1 394.36-31.1 393.26-32.1 393.26-33.8L393.26-33.8Q393.26-35.55 394.36-36.55 395.46-37.55 397.01-37.55L397.01-37.55Q398.51-37.55 399.61-36.55 400.71-35.55 400.71-33.8ZM407.76 0L407.76-25.3Q409.51-25.8 412.31-26.25 415.11-26.7 418.51-26.7L418.51-26.7Q421.71-26.7 423.86-25.83 426.01-24.95 427.28-23.38 428.56-21.8 429.08-19.58 429.61-17.35 429.61-14.7L429.61-14.7 429.61 0 423.56 0 423.56-13.75Q423.56-15.85 423.28-17.32 423.01-18.8 422.38-19.73 421.76-20.65 420.68-21.08 419.61-21.5 418.06-21.5L418.06-21.5Q416.91-21.5 415.66-21.35 414.41-21.2 413.81-21.1L413.81-21.1 413.81 0 407.76 0ZM443.55-4.35L443.55-4.35Q445.95-4.35 447.05-4.93 448.15-5.5 448.15-6.9L448.15-6.9Q448.15-8.2 446.98-9.05 445.8-9.9 443.1-10.9L443.1-10.9Q441.45-11.5 440.08-12.18 438.7-12.85 437.7-13.75 436.7-14.65 436.13-15.93 435.55-17.2 435.55-19.05L435.55-19.05Q435.55-22.65 438.2-24.73 440.85-26.8 445.4-26.8L445.4-26.8Q447.7-26.8 449.8-26.38 451.9-25.95 452.95-25.55L452.95-25.55 451.85-20.65Q450.85-21.1 449.3-21.48 447.75-21.85 445.7-21.85L445.7-21.85Q443.85-21.85 442.7-21.23 441.55-20.6 441.55-19.3L441.55-19.3Q441.55-18.65 441.78-18.15 442-17.65 442.55-17.23 443.1-16.8 444-16.38 444.9-15.95 446.2-15.5L446.2-15.5Q448.35-14.7 449.85-13.93 451.35-13.15 452.33-12.18 453.3-11.2 453.75-9.95 454.2-8.7 454.2-6.95L454.2-6.95Q454.2-3.2 451.43-1.28 448.65 0.65 443.5 0.65L443.5 0.65Q440.05 0.65 437.95 0.08 435.85-0.5 435-0.85L435-0.85 436.05-5.9Q437.4-5.35 439.28-4.85 441.15-4.35 443.55-4.35ZM465.95-26.15L465.95 0 459.9 0 459.9-26.15 465.95-26.15ZM466.6-33.8L466.6-33.8Q466.6-32.1 465.5-31.1 464.4-30.1 462.9-30.1L462.9-30.1Q461.35-30.1 460.25-31.1 459.15-32.1 459.15-33.8L459.15-33.8Q459.15-35.55 460.25-36.55 461.35-37.55 462.9-37.55L462.9-37.55Q464.4-37.55 465.5-36.55 466.6-35.55 466.6-33.8ZM478.4-13.75L478.4-13.75Q478.4-9.9 480.07-8.13 481.75-6.35 484.4-6.35L484.4-6.35Q485.85-6.35 487.12-6.75 488.4-7.15 489.2-7.7L489.2-7.7 489.2-21.25Q488.55-21.4 487.6-21.53 486.65-21.65 485.2-21.65L485.2-21.65Q481.9-21.65 480.15-19.48 478.4-17.3 478.4-13.75ZM495.25-25.3L495.25-2.65Q495.25 3.6 492.07 6.5 488.9 9.4 482.35 9.4L482.35 9.4Q479.95 9.4 477.67 9 475.4 8.6 473.55 7.95L473.55 7.95 474.65 2.8Q476.2 3.45 478.17 3.85 480.15 4.25 482.45 4.25L482.45 4.25Q486.1 4.25 487.65 2.75 489.2 1.25 489.2-1.7L489.2-1.7 489.2-2.7Q488.3-2.25 486.82-1.8 485.35-1.35 483.45-1.35L483.45-1.35Q480.95-1.35 478.87-2.15 476.8-2.95 475.32-4.5 473.85-6.05 473.02-8.38 472.2-10.7 472.2-13.75L472.2-13.75Q472.2-16.6 473.07-19 473.95-21.4 475.62-23.1 477.3-24.8 479.7-25.75 482.1-26.7 485.15-26.7L485.15-26.7Q488.1-26.7 490.75-26.25 493.4-25.8 495.25-25.3L495.25-25.3ZM509 0L502.95 0 502.95-37.8 509-38.8 509-25.85Q510-26.2 511.32-26.45 512.65-26.7 513.95-26.7L513.95-26.7Q517.1-26.7 519.17-25.83 521.25-24.95 522.5-23.38 523.75-21.8 524.27-19.6 524.8-17.4 524.8-14.7L524.8-14.7 524.8 0 518.75 0 518.75-13.75Q518.75-15.85 518.47-17.32 518.2-18.8 517.57-19.73 516.95-20.65 515.9-21.08 514.85-21.5 513.3-21.5L513.3-21.5Q512.1-21.5 510.85-21.25 509.6-21 509-20.8L509-20.8 509 0ZM531.74-10.4L531.74-33.05 537.79-34.05 537.79-26.15 547.09-26.15 547.09-21.1 537.79-21.1 537.79-10.45Q537.79-7.3 538.79-5.95 539.79-4.6 542.19-4.6L542.19-4.6Q543.84-4.6 545.12-4.95 546.39-5.3 547.14-5.6L547.14-5.6 548.14-0.8Q547.09-0.35 545.39 0.13 543.69 0.6 541.39 0.6L541.39 0.6Q538.59 0.6 536.72-0.15 534.84-0.9 533.74-2.33 532.64-3.75 532.19-5.78 531.74-7.8 531.74-10.4L531.74-10.4ZM559.49-4.35L559.49-4.35Q561.89-4.35 562.99-4.93 564.09-5.5 564.09-6.9L564.09-6.9Q564.09-8.2 562.92-9.05 561.74-9.9 559.04-10.9L559.04-10.9Q557.39-11.5 556.01-12.18 554.64-12.85 553.64-13.75 552.64-14.65 552.07-15.93 551.49-17.2 551.49-19.05L551.49-19.05Q551.49-22.65 554.14-24.73 556.79-26.8 561.34-26.8L561.34-26.8Q563.64-26.8 565.74-26.38 567.84-25.95 568.89-25.55L568.89-25.55 567.79-20.65Q566.79-21.1 565.24-21.48 563.69-21.85 561.64-21.85L561.64-21.85Q559.79-21.85 558.64-21.23 557.49-20.6 557.49-19.3L557.49-19.3Q557.49-18.65 557.72-18.15 557.94-17.65 558.49-17.23 559.04-16.8 559.94-16.38 560.84-15.95 562.14-15.5L562.14-15.5Q564.29-14.7 565.79-13.93 567.29-13.15 568.26-12.18 569.24-11.2 569.69-9.95 570.14-8.7 570.14-6.95L570.14-6.95Q570.14-3.2 567.37-1.28 564.59 0.65 559.44 0.65L559.44 0.65Q555.99 0.65 553.89 0.08 551.79-0.5 550.94-0.85L550.94-0.85 551.99-5.9Q553.34-5.35 555.22-4.85 557.09-4.35 559.49-4.35ZM585.73-9.2L585.73-9.2Q585.73-11.1 586.31-12.65 586.88-14.2 587.86-15.45 588.83-16.7 590.11-17.65 591.38-18.6 592.78-19.35L592.78-19.35Q591.28-20.95 590.36-22.75 589.43-24.55 589.43-26.55L589.43-26.55Q589.43-30.75 592.01-33.1 594.58-35.45 598.78-35.45L598.78-35.45Q600.93-35.45 602.61-34.85 604.28-34.25 605.38-33.2 606.48-32.15 607.06-30.73 607.63-29.3 607.63-27.7L607.63-27.7Q607.63-26.1 607.11-24.7 606.58-23.3 605.68-22.13 604.78-20.95 603.61-19.98 602.43-19 601.08-18.25L601.08-18.25 607.93-11.35Q608.63-12.65 609.08-14.28 609.53-15.9 609.78-17.45L609.78-17.45 614.83-16.8Q614.58-14.8 613.78-12.38 612.98-9.95 611.68-7.75L611.68-7.75Q613.33-5.9 614.86-3.93 616.38-1.95 617.38 0L617.38 0 611.08 0Q610.58-0.85 609.81-1.85 609.03-2.85 608.18-3.7L608.18-3.7Q606.13-1.85 603.48-0.7 600.83 0.45 597.48 0.45L597.48 0.45Q594.13 0.45 591.88-0.45 589.63-1.35 588.26-2.75 586.88-4.15 586.31-5.85 585.73-7.55 585.73-9.2ZM591.53-9.6L591.53-9.6Q591.53-8.75 591.86-7.85 592.18-6.95 592.91-6.18 593.63-5.4 594.81-4.9 595.98-4.4 597.63-4.4L597.63-4.4Q599.88-4.4 601.71-5.1 603.53-5.8 604.83-7.1L604.83-7.1 596.03-16.05Q595.28-15.65 594.48-15.1 593.68-14.55 593.03-13.78 592.38-13 591.96-11.98 591.53-10.95 591.53-9.6ZM602.38-27.45L602.38-27.45Q602.38-28.9 601.43-29.93 600.48-30.95 598.68-30.95L598.68-30.95Q596.78-30.95 595.78-29.8 594.78-28.65 594.78-26.9L594.78-26.9Q594.78-25.45 595.58-24.03 596.38-22.6 597.78-21.3L597.78-21.3Q598.73-21.8 599.56-22.4 600.38-23 601.01-23.75 601.63-24.5 602.01-25.4 602.38-26.3 602.38-27.45ZM639.38-26.15L639.38 0 633.33 0 633.33-26.15 639.38-26.15ZM640.03-33.8L640.03-33.8Q640.03-32.1 638.93-31.1 637.83-30.1 636.33-30.1L636.33-30.1Q634.78-30.1 633.68-31.1 632.58-32.1 632.58-33.8L632.58-33.8Q632.58-35.55 633.68-36.55 634.78-37.55 636.33-37.55L636.33-37.55Q637.83-37.55 638.93-36.55 640.03-35.55 640.03-33.8ZM647.08 0L647.08-25.3Q648.83-25.8 651.63-26.25 654.43-26.7 657.83-26.7L657.83-26.7Q661.03-26.7 663.18-25.83 665.33-24.95 666.6-23.38 667.88-21.8 668.4-19.58 668.93-17.35 668.93-14.7L668.93-14.7 668.93 0 662.88 0 662.88-13.75Q662.88-15.85 662.6-17.32 662.33-18.8 661.7-19.73 661.08-20.65 660-21.08 658.93-21.5 657.38-21.5L657.38-21.5Q656.23-21.5 654.98-21.35 653.73-21.2 653.13-21.1L653.13-21.1 653.13 0 647.08 0ZM676.02-10.4L676.02-33.05 682.07-34.05 682.07-26.15 691.37-26.15 691.37-21.1 682.07-21.1 682.07-10.45Q682.07-7.3 683.07-5.95 684.07-4.6 686.47-4.6L686.47-4.6Q688.12-4.6 689.4-4.95 690.67-5.3 691.42-5.6L691.42-5.6 692.42-0.8Q691.37-0.35 689.67 0.13 687.97 0.6 685.67 0.6L685.67 0.6Q682.87 0.6 681-0.15 679.12-0.9 678.02-2.33 676.92-3.75 676.47-5.78 676.02-7.8 676.02-10.4L676.02-10.4ZM695.32-12.95L695.32-12.95Q695.32-16.4 696.35-19 697.37-21.6 699.07-23.33 700.77-25.05 702.97-25.93 705.17-26.8 707.47-26.8L707.47-26.8Q712.87-26.8 715.9-23.45 718.92-20.1 718.92-13.45L718.92-13.45Q718.92-12.95 718.9-12.33 718.87-11.7 718.82-11.2L718.82-11.2 701.57-11.2Q701.82-8.05 703.8-6.33 705.77-4.6 709.52-4.6L709.52-4.6Q711.72-4.6 713.55-5 715.37-5.4 716.42-5.85L716.42-5.85 717.22-0.9Q716.72-0.65 715.85-0.38 714.97-0.1 713.85 0.13 712.72 0.35 711.42 0.5 710.12 0.65 708.77 0.65L708.77 0.65Q705.32 0.65 702.77-0.38 700.22-1.4 698.57-3.23 696.92-5.05 696.12-7.53 695.32-10 695.32-12.95ZM701.62-15.65L712.87-15.65Q712.87-16.9 712.52-18.03 712.17-19.15 711.5-19.98 710.82-20.8 709.85-21.28 708.87-21.75 707.52-21.75L707.52-21.75Q706.12-21.75 705.07-21.23 704.02-20.7 703.3-19.85 702.57-19 702.17-17.9 701.77-16.8 701.62-15.65L701.62-15.65ZM735.27-4.5L734.42 0.5Q731.72 0.45 729.94-0.1 728.17-0.65 727.12-1.68 726.07-2.7 725.64-4.23 725.22-5.75 725.22-7.7L725.22-7.7 725.22-37.8 731.27-38.8 731.27-8.85Q731.27-7.75 731.44-7 731.62-6.25 732.07-5.73 732.52-5.2 733.29-4.93 734.07-4.65 735.27-4.5L735.27-4.5ZM750.12-4.5L749.27 0.5Q746.57 0.45 744.79-0.1 743.02-0.65 741.97-1.68 740.92-2.7 740.49-4.23 740.07-5.75 740.07-7.7L740.07-7.7 740.07-37.8 746.12-38.8 746.12-8.85Q746.12-7.75 746.29-7 746.47-6.25 746.92-5.73 747.37-5.2 748.14-4.93 748.92-4.65 750.12-4.5L750.12-4.5ZM761.11-26.15L761.11 0 755.06 0 755.06-26.15 761.11-26.15ZM761.76-33.8L761.76-33.8Q761.76-32.1 760.66-31.1 759.56-30.1 758.06-30.1L758.06-30.1Q756.51-30.1 755.41-31.1 754.31-32.1 754.31-33.8L754.31-33.8Q754.31-35.55 755.41-36.55 756.51-37.55 758.06-37.55L758.06-37.55Q759.56-37.55 760.66-36.55 761.76-35.55 761.76-33.8ZM773.56-13.75L773.56-13.75Q773.56-9.9 775.24-8.13 776.91-6.35 779.56-6.35L779.56-6.35Q781.01-6.35 782.29-6.75 783.56-7.15 784.36-7.7L784.36-7.7 784.36-21.25Q783.71-21.4 782.76-21.53 781.81-21.65 780.36-21.65L780.36-21.65Q777.06-21.65 775.31-19.48 773.56-17.3 773.56-13.75ZM790.41-25.3L790.41-2.65Q790.41 3.6 787.24 6.5 784.06 9.4 777.51 9.4L777.51 9.4Q775.11 9.4 772.84 9 770.56 8.6 768.71 7.95L768.71 7.95 769.81 2.8Q771.36 3.45 773.34 3.85 775.31 4.25 777.61 4.25L777.61 4.25Q781.26 4.25 782.81 2.75 784.36 1.25 784.36-1.7L784.36-1.7 784.36-2.7Q783.46-2.25 781.99-1.8 780.51-1.35 778.61-1.35L778.61-1.35Q776.11-1.35 774.04-2.15 771.96-2.95 770.49-4.5 769.01-6.05 768.19-8.38 767.36-10.7 767.36-13.75L767.36-13.75Q767.36-16.6 768.24-19 769.11-21.4 770.79-23.1 772.46-24.8 774.86-25.75 777.26-26.7 780.31-26.7L780.31-26.7Q783.26-26.7 785.91-26.25 788.56-25.8 790.41-25.3L790.41-25.3ZM796.66-12.95L796.66-12.95Q796.66-16.4 797.68-19 798.71-21.6 800.41-23.33 802.11-25.05 804.31-25.93 806.51-26.8 808.81-26.8L808.81-26.8Q814.21-26.8 817.23-23.45 820.26-20.1 820.26-13.45L820.26-13.45Q820.26-12.95 820.23-12.33 820.21-11.7 820.16-11.2L820.16-11.2 802.91-11.2Q803.16-8.05 805.13-6.33 807.11-4.6 810.86-4.6L810.86-4.6Q813.06-4.6 814.88-5 816.71-5.4 817.76-5.85L817.76-5.85 818.56-0.9Q818.06-0.65 817.18-0.38 816.31-0.1 815.18 0.13 814.06 0.35 812.76 0.5 811.46 0.65 810.11 0.65L810.11 0.65Q806.66 0.65 804.11-0.38 801.56-1.4 799.91-3.23 798.26-5.05 797.46-7.53 796.66-10 796.66-12.95ZM802.96-15.65L814.21-15.65Q814.21-16.9 813.86-18.03 813.51-19.15 812.83-19.98 812.16-20.8 811.18-21.28 810.21-21.75 808.86-21.75L808.86-21.75Q807.46-21.75 806.41-21.23 805.36-20.7 804.63-19.85 803.91-19 803.51-17.9 803.11-16.8 802.96-15.65L802.96-15.65ZM826.66 0L826.66-25.3Q828.41-25.8 831.21-26.25 834.01-26.7 837.41-26.7L837.41-26.7Q840.61-26.7 842.76-25.83 844.91-24.95 846.18-23.38 847.46-21.8 847.98-19.58 848.51-17.35 848.51-14.7L848.51-14.7 848.51 0 842.46 0 842.46-13.75Q842.46-15.85 842.18-17.32 841.91-18.8 841.28-19.73 840.66-20.65 839.58-21.08 838.51-21.5 836.96-21.5L836.96-21.5Q835.81-21.5 834.56-21.35 833.31-21.2 832.71-21.1L832.71-21.1 832.71 0 826.66 0ZM854.45-13.05L854.45-13.05Q854.45-15.95 855.35-18.48 856.25-21 857.93-22.85 859.6-24.7 862-25.75 864.4-26.8 867.4-26.8L867.4-26.8Q871.1-26.8 874.4-25.45L874.4-25.45 873.1-20.5Q872.05-20.95 870.73-21.25 869.4-21.55 867.9-21.55L867.9-21.55Q864.35-21.55 862.5-19.33 860.65-17.1 860.65-13.05L860.65-13.05Q860.65-9.15 862.4-6.88 864.15-4.6 868.3-4.6L868.3-4.6Q869.85-4.6 871.35-4.9 872.85-5.2 873.95-5.65L873.95-5.65 874.8-0.65Q873.8-0.15 871.78 0.25 869.75 0.65 867.6 0.65L867.6 0.65Q864.25 0.65 861.78-0.38 859.3-1.4 857.68-3.23 856.05-5.05 855.25-7.58 854.45-10.1 854.45-13.05ZM878.05-12.95L878.05-12.95Q878.05-16.4 879.08-19 880.1-21.6 881.8-23.33 883.5-25.05 885.7-25.93 887.9-26.8 890.2-26.8L890.2-26.8Q895.6-26.8 898.63-23.45 901.65-20.1 901.65-13.45L901.65-13.45Q901.65-12.95 901.63-12.33 901.6-11.7 901.55-11.2L901.55-11.2 884.3-11.2Q884.55-8.05 886.53-6.33 888.5-4.6 892.25-4.6L892.25-4.6Q894.45-4.6 896.28-5 898.1-5.4 899.15-5.85L899.15-5.85 899.95-0.9Q899.45-0.65 898.58-0.38 897.7-0.1 896.58 0.13 895.45 0.35 894.15 0.5 892.85 0.65 891.5 0.65L891.5 0.65Q888.05 0.65 885.5-0.38 882.95-1.4 881.3-3.23 879.65-5.05 878.85-7.53 878.05-10 878.05-12.95ZM884.35-15.65L895.6-15.65Q895.6-16.9 895.25-18.03 894.9-19.15 894.23-19.98 893.55-20.8 892.58-21.28 891.6-21.75 890.25-21.75L890.25-21.75Q888.85-21.75 887.8-21.23 886.75-20.7 886.03-19.85 885.3-19 884.9-17.9 884.5-16.8 884.35-15.65L884.35-15.65Z" opacity="1" transform="matrix(1,0,0,1,0,0)" fill="#ffffff" class="slogan-text-1" data-fill-palette-color="secondary" id="text-1"></path></svg></g></svg></g></svg></g></svg></g><g transform="matrix(1,0,0,1,83.08578522875169,0)"><svg viewBox="0 0 229.3484295424966 229.3484295424966" height="229.3484295424966" width="229.3484295424966"><g><svg></svg></g><g id="icon-0"><svg viewBox="0 0 229.3484295424966 229.3484295424966" height="229.3484295424966" width="229.3484295424966"><g><path d="M0 114.674c0-63.333 51.341-114.674 114.674-114.674 63.333 0 114.674 51.341 114.674 114.674 0 63.333-51.341 114.674-114.674 114.674-63.333 0-114.674-51.341-114.674-114.674zM114.674 223.363c60.027 0 108.689-48.662 108.689-108.689 0-60.027-48.662-108.689-108.689-108.689-60.027 0-108.689 48.662-108.689 108.689 0 60.027 48.662 108.689 108.689 108.689z" data-fill-palette-color="accent" fill="#ffffff" stroke="transparent"></path><ellipse rx="113.52747262353581" ry="113.52747262353581" cx="114.6742147712483" cy="114.6742147712483" fill="#ffffff" stroke="transparent" stroke-width="0" fill-opacity="1" data-fill-palette-color="accent"></ellipse></g><g transform="matrix(1,0,0,1,57.712111901246274,46.46138631134069)"><svg viewBox="0 0 113.92420574000406 136.42565691981522" height="136.42565691981522" width="113.92420574000406"><g><svg xmlns="http://www.w3.org/2000/svg" xmlns:xlink="http://www.w3.org/1999/xlink" version="1.1" x="0" y="0" viewBox="10.402000000000008 2.582 79.195 94.837" enable-background="new 0 0 100 100" xml:space="preserve" height="136.42565691981522" width="113.92420574000406" class="icon-cg-0" data-fill-palette-color="quaternary" id="cg-0"><path d="M53.29 59.879c7-11.8 21.489-13.281 21.489-13.281-12.437 6.529-17.837 14.818-18.605 19.902 31.911 5.197 33.423-27.97 33.423-27.97C59.327 33.139 54.48 52.568 53.29 59.879zM39.71 37.597c0 0 0.245-10.657-7.496-17.334 0 0 8.457 3.567 12.003 12.507 0.361-5.378-0.366-19.526-22.712-20.689C21.503 12.081 19.293 34.743 39.71 37.597zM53.711 85.054C51.288 76.99 43.323 43.12 65.504 2.582c0 0-31.401 32.871-22.683 82.522-18.401 0.496-32.419 3.043-32.419 6.113 0 3.425 17.446 6.202 38.966 6.202 21.52 0 38.966-2.777 38.966-6.202C88.335 88.025 73.187 85.398 53.711 85.054z" fill="#000000" data-fill-palette-color="quaternary"></path></svg></g></svg></g></svg></g></svg></g><g></g></svg></g><defs></defs></svg><rect width="274.7643310746926" height="247.2" fill="none" stroke="none" visibility="hidden"></rect></g></svg></g></svg>